<svg id="Capa_1" data-name="Capa 1" xmlns="http://www.w3.org/2000/svg" viewBox="0 0 464 286"><defs><style>.cls-1{fill:#fff;}.cls-2,.cls-3{fill:#452a11;}.cls-2{opacity:0.1;}.cls-4{fill:#303030;}.cls-5{fill:#695342;}.cls-6{fill:#f06669;}</style></defs><title>Mesa de trabajo 1</title><path class="cls-1" d="M121,226.73H104.19a30.42,30.42,0,0,1-30.42-30.42V78.77A30.42,30.42,0,0,1,104.2,48.35H351.06a30.42,30.42,0,0,1,30.42,30.42V196.31a30.42,30.42,0,0,1-30.42,30.42H121Z"/><path class="cls-2" d="M178.25,226.73H351.06a30.42,30.42,0,0,0,30.42-30.42V76.51a27.86,27.86,0,0,0-3.26-13.11A2.26,2.26,0,0,0,374,64.51v119.9a30.42,30.42,0,0,1-30.42,30.42H80s7.83,13.63,30.9,11.9h0L178,227"/><path class="cls-3" d="M116.86,286.36m63.66-52.11H351.06A37.94,37.94,0,0,0,389,196.31V78.77a37.94,37.94,0,0,0-37.94-37.94H104.2A38,38,0,0,0,66.31,76.64C66.3,76.85,11,92,11,92l55.25,19.12v85.19a37.94,37.94,0,0,0,37.94,37.94H114.7m6.31-7.52H104.2a30.42,30.42,0,0,1-30.43-30.42L74,106,32,93,74,82c0-16.8,13.39-33.65,30.19-33.65H351.06a30.42,30.42,0,0,1,30.42,30.42V196.31a30.42,30.42,0,0,1-30.42,30.42H178.25"/><rect class="cls-4" x="183.22" y="86.8" width="8.66" height="39" transform="translate(-20.24 163.75) rotate(-45)"/><rect class="cls-4" x="183.22" y="86.8" width="8.66" height="39" transform="translate(130.1 -101.48) rotate(45)"/><rect class="cls-4" x="272.12" y="86.8" width="8.66" height="39" transform="translate(5.8 226.61) rotate(-45)"/><rect class="cls-4" x="272.12" y="86.8" width="8.66" height="39" transform="translate(156.14 -164.34) rotate(45)"/><ellipse class="cls-5" cx="232" cy="153.88" rx="17.09" ry="28.96"/><path class="cls-6" d="M246.42,169.41c-12.46-6.85-22.61-3-28.48.92,3.08,7.56,8.23,12.52,14.06,12.52C238.07,182.85,243.39,177.48,246.42,169.41Z"/></svg>